<svg id="Layer_1" enable-background="new 0 0 512 512" viewBox="0 0 512 512" xmlns="http://www.w3.org/2000/svg"><g id="Layer_2_00000070088196968904940430000003683327230242951565_"><g id="Dram"><path d="m396.3 307.3h-52.5v-63.1h52.5c11.1 0 20.1-9 20.1-20 0-11.1-9-20.1-20-20.1h-52.5v-80c0-68.5-55.6-124.1-124.2-124.1-68.5 0-124.1 55.6-124.1 124.1v15.6c0 11.1 9 20 20 20s20-9 20-20v-15.6c0-46.4 37.6-84 84-84s84 37.6 84 84v80h-123.9c-11.1 0-20.1 9-20.1 20.1s9 20.1 20.1 20.1h124.1v63.1h-124.1c-11.1 0-20 9-20 20 0 11.1 9 20 20 20h124.1v144.6c0 11.1 9 20 20 20 11.1 0 20-9 20-20v-144.6h52.5c11.1 0 20-9 20-20 .1-11.1-8.9-20.1-20-20.1z"/></g></g></svg>