<svg xmlns="http://www.w3.org/2000/svg" width="430.949" height="345.1" viewBox="0 0 430.949 345.1">
  <path id="Rial" d="M318.7,360.3a77.972,77.972,0,0,1-77.9-77.8V105.3a21.8,21.8,0,1,1,43.6,0V282.5a34.3,34.3,0,1,0,68.6,0V222a21.8,21.8,0,1,1,43.6,0v60.5a77.972,77.972,0,0,1-77.9,77.8ZM217.9,314.9V105.3a21.8,21.8,0,0,0-43.6,0V314.9a45.1,45.1,0,1,1-90.2,0V265.2a21.8,21.8,0,1,0-43.6,0v49.7a88.7,88.7,0,1,0,177.4,0ZM383.1,428c34.6-7.2,59.6-24.4,74.3-50.9,29.2-52.8,4-122.8,2.9-125.7a21.782,21.782,0,0,0-40.9,15c.2.5,19.4,54.5-.2,89.8-8.4,15.1-23.1,24.7-45,29.3a21.787,21.787,0,0,0,4.5,43.1,35.614,35.614,0,0,0,4.4-.6Zm-38.3-47.9H306V419h38.9V380.1Zm-49.6,0H256.3V419h38.9Z" transform="translate(-40.5 -83.5)"/>
</svg>
